<svg width="5287" height="784" viewBox="0 0 5287 784" fill="none" xmlns="http://www.w3.org/2000/svg">
<path d="M999.928 645V143.926H1371.46V228.691H1101.1V339.775H1352.66V424.199H1101.1V560.576H1381.03V645H999.928ZM1469.56 645V148.027H1570.73V560.576H1822.29V645H1469.56ZM2076.93 143.926H2277.22C2316.87 143.926 2346.38 145.635 2365.75 149.053C2385.34 152.243 2402.78 159.079 2418.04 169.561C2433.54 180.042 2446.41 194.056 2456.67 211.602C2466.92 228.919 2472.05 248.402 2472.05 270.049C2472.05 293.519 2465.67 315.052 2452.91 334.648C2440.37 354.245 2423.28 368.942 2401.64 378.74C2432.17 387.627 2455.64 402.78 2472.05 424.199C2488.45 445.618 2496.66 470.798 2496.66 499.736C2496.66 522.523 2491.3 544.74 2480.59 566.387C2470.11 587.806 2455.64 605.01 2437.18 617.998C2418.95 630.758 2396.4 638.62 2369.51 641.582C2352.65 643.405 2311.97 644.544 2247.49 645H2076.93V143.926ZM2178.1 227.324V343.193H2244.41C2283.83 343.193 2308.33 342.624 2317.9 341.484C2335.21 339.434 2348.77 333.509 2358.57 323.711C2368.6 313.685 2373.61 300.583 2373.61 284.404C2373.61 268.91 2369.28 256.377 2360.62 246.807C2352.19 237.008 2339.54 231.084 2322.68 229.033C2312.66 227.894 2283.83 227.324 2236.21 227.324H2178.1ZM2178.1 426.592V560.576H2271.75C2308.21 560.576 2331.34 559.551 2341.14 557.5C2356.18 554.766 2368.37 548.158 2377.71 537.676C2387.28 526.966 2392.07 512.725 2392.07 494.951C2392.07 479.912 2388.42 467.152 2381.13 456.67C2373.84 446.188 2363.24 438.555 2349.34 433.77C2335.67 428.984 2305.82 426.592 2259.79 426.592H2178.1ZM2559.55 458.379C2559.55 426.478 2567.41 395.602 2583.13 365.752C2598.85 335.902 2621.07 313.115 2649.78 297.393C2678.72 281.67 2710.96 273.809 2746.51 273.809C2801.43 273.809 2846.43 291.696 2881.52 327.471C2916.61 363.018 2934.16 408.021 2934.16 462.48C2934.16 517.396 2916.38 562.969 2880.84 599.199C2845.52 635.202 2800.97 653.203 2747.19 653.203C2713.93 653.203 2682.14 645.684 2651.83 630.645C2621.75 615.605 2598.85 593.617 2583.13 564.678C2567.41 535.511 2559.55 500.078 2559.55 458.379ZM2657.98 463.506C2657.98 499.508 2666.53 527.08 2683.62 546.221C2700.71 565.361 2721.79 574.932 2746.85 574.932C2771.92 574.932 2792.88 565.361 2809.74 546.221C2826.83 527.08 2835.38 499.281 2835.38 462.822C2835.38 427.275 2826.83 399.932 2809.74 380.791C2792.88 361.65 2771.92 352.08 2746.85 352.08C2721.79 352.08 2700.71 361.65 2683.62 380.791C2666.53 399.932 2657.98 427.503 2657.98 463.506ZM3248.61 645V590.654C3235.39 610.023 3217.96 625.29 3196.31 636.455C3174.9 647.62 3152.22 653.203 3128.3 653.203C3103.92 653.203 3082.04 647.848 3062.67 637.139C3043.3 626.429 3029.29 611.39 3020.63 592.021C3011.97 572.653 3007.64 545.879 3007.64 511.699V282.012H3103.69V448.809C3103.69 499.85 3105.4 531.182 3108.81 542.803C3112.46 554.196 3118.95 563.311 3128.3 570.146C3137.64 576.755 3149.49 580.059 3163.84 580.059C3180.25 580.059 3194.95 575.615 3207.94 566.729C3220.92 557.614 3229.81 546.449 3234.6 533.232C3239.38 519.788 3241.77 487.09 3241.77 435.137V282.012H3337.82V645H3248.61ZM3604.08 282.012V358.574H3538.45V504.863C3538.45 534.486 3539.02 551.803 3540.16 556.816C3541.53 561.602 3544.38 565.589 3548.71 568.779C3553.26 571.969 3558.73 573.564 3565.11 573.564C3574 573.564 3586.87 570.488 3603.74 564.336L3611.94 638.848C3589.61 648.418 3564.32 653.203 3536.06 653.203C3518.74 653.203 3503.13 650.355 3489.23 644.658C3475.33 638.734 3465.08 631.214 3458.47 622.1C3452.09 612.757 3447.65 600.225 3445.14 584.502C3443.09 573.337 3442.07 550.778 3442.07 516.826V358.574H3397.97V282.012H3442.07V209.893L3538.45 153.838V282.012H3604.08ZM3670.73 232.793V143.926H3766.77V232.793H3670.73ZM3670.73 645V282.012H3766.77V645H3670.73ZM4102.76 783.086V600.566C4090.23 616.745 4074.62 629.619 4055.93 639.189C4037.25 648.532 4017.08 653.203 3995.44 653.203C3954.19 653.203 3920.24 637.708 3893.58 606.719C3862.13 570.488 3846.41 521.383 3846.41 459.404C3846.41 401.071 3861.11 355.612 3890.5 323.027C3920.13 290.215 3956.81 273.809 4000.56 273.809C4024.72 273.809 4045.57 278.936 4063.11 289.189C4080.88 299.443 4096.61 314.938 4110.28 335.674V282.012H4198.8V783.086H4102.76ZM4105.84 459.062C4105.84 421.921 4098.2 394.349 4082.94 376.348C4067.9 358.118 4048.98 349.004 4026.2 349.004C4002.96 349.004 3983.47 358.232 3967.75 376.689C3952.26 395.146 3944.51 424.427 3944.51 464.531C3944.51 504.408 3952.03 533.232 3967.07 551.006C3982.11 568.551 4000.68 577.324 4022.78 577.324C4044.88 577.324 4064.25 567.412 4080.88 547.588C4097.52 527.764 4105.84 498.255 4105.84 459.062ZM4532.4 645V590.654C4519.18 610.023 4501.75 625.29 4480.1 636.455C4458.68 647.62 4436.01 653.203 4412.09 653.203C4387.7 653.203 4365.83 647.848 4346.46 637.139C4327.09 626.429 4313.08 611.39 4304.42 592.021C4295.76 572.653 4291.43 545.879 4291.43 511.699V282.012H4387.48V448.809C4387.48 499.85 4389.19 531.182 4392.6 542.803C4396.25 554.196 4402.74 563.311 4412.09 570.146C4421.43 576.755 4433.28 580.059 4447.63 580.059C4464.04 580.059 4478.74 575.615 4491.72 566.729C4504.71 557.614 4513.6 546.449 4518.38 533.232C4523.17 519.788 4525.56 487.09 4525.56 435.137V282.012H4621.61V645H4532.4ZM4931.62 529.473L5027.32 545.537C5015.02 580.628 4995.53 607.402 4968.87 625.859C4942.44 644.089 4909.29 653.203 4869.41 653.203C4806.29 653.203 4759.58 632.581 4729.27 591.338C4705.35 558.298 4693.38 516.598 4693.38 466.24C4693.38 406.084 4709.11 359.03 4740.55 325.078C4772 290.898 4811.76 273.809 4859.84 273.809C4913.84 273.809 4956.45 291.696 4987.67 327.471C5018.89 363.018 5033.81 417.591 5032.45 491.191H4791.82C4792.51 519.674 4800.25 541.891 4815.06 557.842C4829.88 573.564 4848.33 581.426 4870.44 581.426C4885.47 581.426 4898.12 577.324 4908.38 569.121C4918.63 560.918 4926.38 547.702 4931.62 529.473ZM4937.09 432.402C4936.4 404.603 4929.22 383.525 4915.55 369.17C4901.88 354.587 4885.25 347.295 4865.65 347.295C4844.69 347.295 4827.37 354.928 4813.7 370.195C4800.03 385.462 4793.3 406.198 4793.53 432.402H4937.09Z" fill="black"/>
<path d="M515.63 768H286.98C249.649 768 216.985 752.86 188.987 722.58C160.989 692.3 151.656 651.927 156.322 611.553L174.988 409.687L146.99 434.92C137.657 445.013 123.658 445.013 114.325 434.92L6.99951 313.8C-2.33317 303.707 -2.33317 288.567 6.99951 278.473L170.321 56.42C174.988 51.3733 174.988 51.3733 179.654 46.3267L282.313 11C286.98 11 296.312 11 300.979 16.0467C305.645 21.0934 310.312 26.14 310.312 36.2333C310.312 41.28 319.644 111.933 394.306 111.933C468.967 111.933 478.3 46.3267 478.3 36.2333C478.3 31.1867 482.966 21.0934 487.632 16.0467C492.299 11 501.631 11 506.298 11L608.957 46.3267C613.624 46.3267 618.29 51.3733 618.29 56.42L781.612 278.473C790.944 288.567 786.278 303.707 781.612 313.8L674.286 434.92C664.953 445.013 650.954 445.013 641.622 434.92L613.624 409.687L632.289 611.553C636.955 651.927 622.956 692.3 599.625 722.58C576.293 752.86 552.961 768 515.63 768ZM207.652 318.847C212.318 318.847 216.985 318.847 216.985 323.893C226.317 328.94 230.984 339.033 230.984 349.127L207.652 616.6C207.652 641.833 212.318 667.067 230.984 687.253C244.983 707.44 268.314 717.533 291.646 717.533H520.297C543.628 717.533 566.96 707.44 580.959 687.253C594.958 667.067 604.291 641.833 604.291 616.6L580.959 349.127C580.959 339.033 585.626 328.94 594.958 323.893C604.291 318.847 613.624 318.847 622.956 328.94L678.952 384.453L753.614 298.66L604.291 96.7933L534.296 71.56C520.297 111.933 487.632 162.4 408.305 162.4C328.977 162.4 296.312 111.933 282.313 71.56L212.318 96.7933L62.9956 298.66L137.657 384.453L193.653 328.94C193.653 318.847 202.986 318.847 207.652 318.847Z" fill="black"/>
</svg>
